HIERARCHY
ROOT Hips
{
	OFFSET 0.000000 88.474243 0.000000
	CHANNELS 6 Xposition Yposition Zposition Zrotation Yrotation Xrotation 
	JOINT Hips_Spine
	{
		OFFSET 0.000000 0.000000 0.000000
		CHANNELS 3 Zrotation Yrotation Xrotation
		JOINT Spine
		{
			OFFSET 0.005100 8.711998 -0.691000
			CHANNELS 3 Zrotation Yrotation Xrotation
			JOINT Spine1
			{
				OFFSET -0.009200 8.660301 -1.275000
				CHANNELS 3 Zrotation Yrotation Xrotation
				JOINT Spine2
				{
					OFFSET 0.006300 9.852501 -1.857000
					CHANNELS 3 Zrotation Yrotation Xrotation
					JOINT Spine2_Neck
					{
						OFFSET 0.000000 0.000000 0.000000
						CHANNELS 3 Zrotation Yrotation Xrotation
						JOINT Neck
						{
							OFFSET 0.016300 11.420799 -0.263300
							CHANNELS 3 Zrotation Yrotation Xrotation
							End Site #name: Head
							{
								OFFSET -0.019200 9.262405 2.362500
							}
						}
					}
					JOINT Spine2_LeftShoulder
					{
						OFFSET 0.000000 0.000000 0.000000
						CHANNELS 3 Zrotation Yrotation Xrotation
						JOINT LeftShoulder
						{
							OFFSET 5.616900 6.732201 -0.345700
							CHANNELS 3 Zrotation Yrotation Xrotation
							JOINT LeftArm
							{
								OFFSET 10.664888 -0.183372 -2.440700
								CHANNELS 3 Zrotation Yrotation Xrotation
								JOINT LeftForeArm
								{
									OFFSET 27.459126 0.000000 0.000000
									CHANNELS 3 Zrotation Yrotation Xrotation
									End Site #name: LeftHand
									{
										OFFSET 21.306858 0.000000 0.000000
									}
								}
							}
						}
					}
					JOINT Spine2_RightShoulder
					{
						OFFSET 0.000000 0.000000 0.000000
						CHANNELS 3 Zrotation Yrotation Xrotation
						JOINT RightShoulder
						{
							OFFSET -5.580300 6.737503 -0.344400
							CHANNELS 3 Zrotation Yrotation Xrotation
							JOINT RightArm
							{
								OFFSET -10.679335 -0.188484 -2.383900
								CHANNELS 3 Zrotation Yrotation Xrotation
								JOINT RightForeArm
								{
									OFFSET -27.503529 0.000000 0.000000
									CHANNELS 3 Zrotation Yrotation Xrotation
									End Site #name: RightHand
									{
										OFFSET -21.306808 0.000000 0.000000
									}
								}
							}
						}
					}
				}
			}
		}
	}
	JOINT Hips_LeftUpLeg
	{
		OFFSET 0.000000 0.000000 0.000000
		CHANNELS 3 Zrotation Yrotation Xrotation
		JOINT LeftUpLeg
		{
			OFFSET 6.857700 -6.739601 0.312100
			CHANNELS 3 Zrotation Yrotation Xrotation
			JOINT LeftLeg
			{
				OFFSET -0.367590 -34.731552 -4.572400
				CHANNELS 3 Zrotation Yrotation Xrotation
				End Site #name: LeftFoot
				{
					OFFSET 0.367590 -34.656704 -6.067400
				}
			}
		}
	}
	JOINT Hips_RightUpLeg
	{
		OFFSET 0.000000 0.000000 0.000000
		CHANNELS 3 Zrotation Yrotation Xrotation
		JOINT RightUpLeg
		{
			OFFSET -6.876100 -6.733299 0.301000
			CHANNELS 3 Zrotation Yrotation Xrotation
			JOINT RightLeg
			{
				OFFSET 0.347353 -34.795158 -4.515900
				CHANNELS 3 Zrotation Yrotation Xrotation
				End Site #name: RightFoot
				{
					OFFSET -0.347353 -34.589367 -6.070300
				}
			}
		}
	}
}
MOTION
Frames: 7
Frame Time: 0.041667
0.024511 -0.026118 -0.079291 -179.514662 45.651708 -175.859203 -0.000000 -0.000000 0.000000 -3.929373 2.970921 -1.332837 1.111614 -0.386751 0.392047 0.000000 0.000000 0.000000 0.470858 -0.994613 -2.714344 -1.663503 -8.641815 -0.241913 0.605996 -0.083183 -1.113828 -2.851735 -8.412941 1.632262 -79.043480 -8.848467 7.373944 0.774693 -17.059504 3.581871 0.352763 -0.489153 -1.734172 17.686555 12.980859 4.357069 50.305117 14.511238 -9.194459 -9.156657 72.011105 -2.725689 0.000000 -0.000000 0.000000 -8.082942 18.861944 -15.847702 -8.381110 -37.687222 2.789123 -0.000000 -0.000000 -0.000000 -8.744910 -28.643360 -7.430112 -14.635726 -10.198099 14.972165 
-0.266907 -0.207905 -0.158549 178.312934 52.734381 -176.816224 -0.000000 -0.000000 0.000000 -5.915153 2.691768 1.063394 1.335566 -0.686452 -0.786329 0.000000 0.000000 0.000000 1.137840 -0.696441 -2.911574 -0.448968 -16.850029 0.639954 0.760380 -0.342507 -1.861772 -1.583634 -10.548355 1.928880 -85.283787 -15.905747 3.268020 -1.186790 -12.918195 1.648294 1.053590 -0.801725 -0.778104 22.900520 16.102226 4.676922 49.386137 13.369865 -10.469786 -0.643399 53.083822 3.909476 -0.000000 -0.000000 -0.000000 -6.445917 20.072689 -13.761739 -4.978736 -35.842655 -2.970738 -0.000000 -0.000000 -0.000000 -9.064494 -34.894313 -6.292300 -13.104941 -6.793239 14.371091 
-0.369545 -0.291933 -0.211716 177.282566 42.557042 -177.644414 -0.000000 -0.000000 0.000000 -6.602762 -0.451181 1.567171 1.474686 -0.631072 -1.522238 0.000000 0.000000 0.000000 1.471487 -0.868444 -3.334734 -1.469862 -25.875316 0.538666 0.769488 -0.244739 -2.458587 -0.072050 -10.005606 1.302569 -86.748852 -17.446249 -1.334641 -0.953570 -7.267532 1.973191 1.280720 -0.932098 -2.468989 24.467866 17.980516 5.609367 50.759992 13.001986 -4.792813 1.402400 49.422121 6.254322 -0.000000 -0.000000 -0.000000 -5.084104 20.947903 -12.435901 -3.892872 -34.830418 -5.455881 -0.000000 -0.000000 -0.000000 -9.521980 -40.244352 -4.061484 -13.361963 -7.077811 15.245651 
-0.297274 -0.349486 -0.248892 177.524961 31.355886 -178.076205 -0.000000 -0.000000 0.000000 -6.504260 -1.339957 2.260564 1.111367 -1.009192 -2.128365 0.000000 0.000000 0.000000 1.381125 -1.166180 -3.448507 -1.989251 -30.533247 0.364184 0.628897 -0.478828 -2.961352 0.522386 -9.331737 0.965999 -87.935404 -18.372633 -2.396664 -0.613150 -4.717704 1.979758 0.999214 -1.353564 -2.815594 23.353440 17.563599 5.699671 51.615322 12.665899 -2.477756 3.545269 47.476894 7.821195 -0.000000 0.000000 -0.000000 -4.409571 21.656362 -11.300274 -3.208972 -35.658119 -6.467696 -0.000000 -0.000000 -0.000000 -10.387169 -47.403167 -2.854591 -14.019699 -6.617868 16.299383 
-0.151015 -0.372402 -0.314464 177.111950 20.635087 -178.588006 -0.000000 -0.000000 0.000000 -6.011096 -1.495185 2.458630 0.715566 -1.262415 -2.434234 0.000000 0.000000 0.000000 1.186623 -1.391395 -3.117360 -1.734280 -32.129458 -0.079232 0.366900 -0.713746 -3.085334 0.625909 -8.642746 0.791982 -88.810645 -18.957248 -1.795460 0.314992 -3.541029 2.839953 0.659925 -1.598175 -2.613520 21.180129 16.518018 5.382633 52.308305 12.826122 -0.088465 4.835358 47.961313 8.237320 -0.000000 0.000000 -0.000000 -4.169290 22.184022 -10.814163 -2.971916 -36.693287 -7.020264 -0.000000 -0.000000 -0.000000 -11.039741 -52.826106 -2.163436 -14.859089 -5.978455 17.206092 
0.008712 -0.372648 -0.411625 176.427399 11.763422 -178.899431 -0.000000 -0.000000 0.000000 -5.466927 -1.236004 2.627857 0.382749 -1.461690 -2.234728 0.000000 0.000000 0.000000 0.982031 -1.496940 -2.446122 -1.099040 -31.592865 -1.053805 0.125036 -0.856262 -2.745111 0.521886 -7.929272 0.713545 -89.173847 -18.961751 -0.882964 1.470020 -3.168779 3.993889 0.381872 -1.711553 -2.002789 19.081484 15.289641 5.369010 53.202553 12.484409 2.096491 4.622076 48.097472 7.747875 -0.000000 0.000000 -0.000000 -4.309151 22.359231 -10.719217 -2.785646 -37.402651 -7.509912 -0.000000 -0.000000 -0.000000 -11.160240 -56.377883 -2.076961 -15.595108 -5.701952 17.678302 
0.175193 -0.351354 -0.526462 175.602939 5.086154 -179.062716 -0.000000 -0.000000 0.000000 -5.182119 -0.211188 2.758769 0.128397 -1.515746 -1.632916 0.000000 0.000000 0.000000 0.791392 -1.525714 -1.614785 -0.516842 -30.109564 -2.063014 -0.058311 -0.954697 -2.182774 0.350540 -7.183272 0.675185 -88.987386 -18.896633 0.019578 2.417847 -3.840962 4.960060 0.169644 -1.780769 -1.392697 17.499442 14.209546 5.233366 53.986997 11.008753 3.954942 3.833315 46.330429 7.061840 -0.000000 0.000000 -0.000000 -4.533171 22.124397 -10.663231 -2.620391 -37.819347 -8.108147 -0.000000 -0.000000 -0.000000 -11.291083 -58.633526 -2.055628 -16.165592 -5.940233 17.678485 
